<svg xmlns="http://www.w3.org/2000/svg" viewBox="0 0 900 600">
  <rect width="900" height="600" fill="#de2910"/>
  <polygon fill="#ffde00" points="150,75 170,136 235,136 182,174 203,235 150,197 97,235 118,174 65,136 130,136"/>
  <polygon fill="#ffde00" points="300,60 313,86 342,90 321,110 326,138 300,125 274,138 279,110 258,90 287,86"/>
  <polygon fill="#ffde00" points="360,135 373,161 402,165 381,185 386,213 360,200 334,213 339,185 318,165 347,161"/>
  <polygon fill="#ffde00" points="360,255 373,281 402,285 381,305 386,333 360,320 334,333 339,305 318,285 347,281"/>
  <polygon fill="#ffde00" points="300,330 313,356 342,360 321,380 326,408 300,395 274,408 279,380 258,360 287,356"/>
</svg>
